<svg width="108" height="108" viewBox="0 0 108 108" fill="none" xmlns="http://www.w3.org/2000/svg">
<circle cx="2.45" cy="2.45" r="2.45" fill="white"/>
<circle cx="17.15" cy="2.45" r="2.45" fill="white"/>
<circle cx="31.8499" cy="2.45" r="2.45" fill="white"/>
<circle cx="46.5501" cy="2.45" r="2.45" fill="white"/>
<circle cx="61.25" cy="2.45" r="2.45" fill="white"/>
<circle cx="75.95" cy="2.45" r="2.45" fill="white"/>
<circle cx="90.6499" cy="2.45" r="2.45" fill="white"/>
<circle cx="105.35" cy="2.45" r="2.45" fill="white"/>
<circle cx="2.45" cy="17.1502" r="2.45" fill="white"/>
<circle cx="17.15" cy="17.1502" r="2.45" fill="white"/>
<circle cx="31.8499" cy="17.1502" r="2.45" fill="white"/>
<circle cx="46.5501" cy="17.1502" r="2.45" fill="white"/>
<circle cx="61.25" cy="17.1502" r="2.45" fill="white"/>
<circle cx="75.95" cy="17.1502" r="2.45" fill="white"/>
<circle cx="90.6499" cy="17.1502" r="2.45" fill="white"/>
<circle cx="105.35" cy="17.1502" r="2.45" fill="white"/>
<circle cx="2.45" cy="31.8504" r="2.45" fill="white"/>
<circle cx="17.15" cy="31.8504" r="2.45" fill="white"/>
<circle cx="31.8499" cy="31.8504" r="2.45" fill="white"/>
<circle cx="46.5501" cy="31.8504" r="2.45" fill="white"/>
<circle cx="61.25" cy="31.8504" r="2.45" fill="white"/>
<circle cx="75.95" cy="31.8504" r="2.45" fill="white"/>
<circle cx="90.6499" cy="31.8504" r="2.45" fill="white"/>
<circle cx="105.35" cy="31.8504" r="2.45" fill="white"/>
<circle cx="2.45" cy="46.5506" r="2.45" fill="white"/>
<circle cx="17.15" cy="46.5506" r="2.45" fill="white"/>
<circle cx="31.8499" cy="46.5506" r="2.45" fill="white"/>
<circle cx="46.5501" cy="46.5506" r="2.45" fill="white"/>
<circle cx="61.25" cy="46.5506" r="2.45" fill="white"/>
<circle cx="75.95" cy="46.5506" r="2.45" fill="white"/>
<circle cx="90.6499" cy="46.5506" r="2.45" fill="white"/>
<circle cx="105.35" cy="46.5506" r="2.45" fill="white"/>
<circle cx="2.45" cy="61.45" r="2.45" fill="white"/>
<circle cx="17.15" cy="61.45" r="2.45" fill="white"/>
<circle cx="31.8499" cy="61.45" r="2.45" fill="white"/>
<circle cx="46.5501" cy="61.45" r="2.45" fill="white"/>
<circle cx="61.25" cy="61.45" r="2.45" fill="white"/>
<circle cx="75.95" cy="61.45" r="2.45" fill="white"/>
<circle cx="90.6499" cy="61.45" r="2.45" fill="white"/>
<circle cx="105.35" cy="61.45" r="2.45" fill="white"/>
<circle cx="2.45" cy="76.1502" r="2.45" fill="white"/>
<circle cx="17.15" cy="76.1502" r="2.45" fill="white"/>
<circle cx="31.8499" cy="76.1502" r="2.45" fill="white"/>
<circle cx="46.5501" cy="76.1502" r="2.45" fill="white"/>
<circle cx="61.25" cy="76.1502" r="2.45" fill="white"/>
<circle cx="75.95" cy="76.1502" r="2.45" fill="white"/>
<circle cx="90.6499" cy="76.1502" r="2.45" fill="white"/>
<circle cx="105.35" cy="76.1502" r="2.45" fill="white"/>
<circle cx="2.45" cy="90.8504" r="2.45" fill="white"/>
<circle cx="17.15" cy="90.8504" r="2.45" fill="white"/>
<circle cx="31.8499" cy="90.8504" r="2.45" fill="white"/>
<circle cx="46.5501" cy="90.8504" r="2.45" fill="white"/>
<circle cx="61.25" cy="90.8504" r="2.45" fill="white"/>
<circle cx="75.95" cy="90.8504" r="2.45" fill="white"/>
<circle cx="90.6499" cy="90.8504" r="2.45" fill="white"/>
<circle cx="105.35" cy="90.8504" r="2.45" fill="white"/>
<circle cx="2.45" cy="105.551" r="2.45" fill="white"/>
<circle cx="17.15" cy="105.551" r="2.45" fill="white"/>
<circle cx="31.8499" cy="105.551" r="2.45" fill="white"/>
<circle cx="46.5501" cy="105.551" r="2.45" fill="white"/>
<circle cx="61.25" cy="105.551" r="2.45" fill="white"/>
<circle cx="75.95" cy="105.551" r="2.45" fill="white"/>
<circle cx="90.6499" cy="105.551" r="2.45" fill="white"/>
<circle cx="105.35" cy="105.551" r="2.45" fill="white"/>
</svg>
